<svg width="100.000000" height="20.000000" viewBox="0 0 100 20" fill="none" xmlns="http://www.w3.org/2000/svg" xmlns:xlink="http://www.w3.org/1999/xlink">
	<desc>
			Created with Pixso.
	</desc>
	<defs/>
	<path id="Vector" d="M15.82 7.65L13.39 7.65C12.78 7.65 12.24 7.25 12.06 6.66L11.33 4.32C10.93 3.01 9.06 3.01 8.66 4.32L7.93 6.66C7.75 7.25 7.21 7.65 6.6 7.65L4.12 7.65C2.79 7.65 2.21 9.35 3.27 10.16L5.39 11.78C5.85 12.14 6.05 12.75 5.88 13.3L5.11 15.82C4.71 17.12 6.22 18.17 7.3 17.34L9.14 15.92C9.65 15.54 10.34 15.54 10.85 15.92L12.68 17.32C13.76 18.15 15.27 17.1 14.86 15.8L14.09 13.28C13.91 12.71 14.11 12.1 14.58 11.75L16.67 10.17C17.74 9.36 17.17 7.65 15.82 7.65Z" fill="#FFAD33" fill-opacity="1.000000" fill-rule="nonzero"/>


</svg>
